<?xml version="1.0" encoding="UTF-8"?>
<svg id="Layer_1" data-name="Layer 1" xmlns="http://www.w3.org/2000/svg" viewBox="0 0 992.933 310.5531">
  <defs>
    <style>
      .cls-1 {
        stroke: #132a42;
        stroke-miterlimit: 10;
        stroke-width: 25px;
      }

      .cls-1, .cls-2 {
        fill: #132a42;
      }

      .cls-2 {
        stroke-width: 0px;
      }
    </style>
  </defs>
  <path class="cls-1" d="M274.6469,142.8923v13.7607c0,81.7979-52.3662,135.3105-128.8125,135.3105-73.0059,0-131.8701-61.9219-131.8701-138.3682C13.9643,77.531,72.8286,15.6091,145.8344,15.6091c52.748,0,102.0566,29.8145,122.6973,88.2959h-34.4014c-16.4355-35.165-48.9258-56.9531-88.2959-56.9531-55.041,0-99.7627,48.5439-99.7627,106.6436,0,58.4814,44.7217,107.0254,99.7627,107.0254,55.4238,0,90.5889-37.0771,95.5586-86.3848h-93.6475v-31.3438h126.9014Z"/>
  <path class="cls-1" d="M595.2586,153.5954c0,77.2109-58.8643,138.3682-131.4883,138.3682s-131.4873-60.7754-131.4873-138.3682c0-77.2109,58.8633-137.9863,131.4873-137.9863,73.7715,0,131.4883,59.2461,131.4883,137.9863ZM563.1512,153.5954c0-61.1572-43.5742-107.0254-99.3809-107.0254-54.6592,0-99.3799,47.0146-99.3799,107.0254,0,60.3926,44.7207,107.0254,99.3799,107.0254s99.3809-47.0146,99.3809-107.0254Z"/>
  <path class="cls-1" d="M875.3492,264.5433c44.7217,0,69.1846-29.0498,69.1846-68.4199V26.0296h32.4893v170.0938c0,58.8633-41.2803,99.7627-101.6738,99.7627-60.7744,0-101.6738-40.8994-101.6738-99.7627V26.0296h32.1074v170.0938c0,39.3701,25.2275,68.4199,69.5664,68.4199Z"/>
  <circle class="cls-2" cx="685.1746" cy="157.5895" r="46.6522"/>
</svg>